<svg xmlns="http://www.w3.org/2000/svg" viewBox="0 0 1000 1000" fill="#12285F"><path d="M806.6,369.2c-0.6-1.1-1.1-1.7-2.2-2.8c-54.4-61.1-131.6-147.7-187.2-209.4c-17.2-18.3-34.4-36.7-50.5-55.5 c-3.9-4.4-7.2-8.9-11.1-13.3c-3.3-3.3-5-5.6-5-5.6h0.6c-18.9-22.2-33.9-47.2-44.4-73.9l-2.8-6.1c0-0.6-0.6-0.6-1.1-1.1 c-0.6,0-1.7-0.6-2.2-0.6H500c-1.1,0-1.7,0.6-2.2,0.6c-0.6,0.6-0.6,0.6-1.1,1.1l-2.8,6.1c-11.1,26.7-26.1,51.6-44.4,73.9h0.6 c0,0-1.7,2.2-5,5.6c-3.9,4.4-7.2,8.9-11.1,13.3c-16.7,18.9-33.3,37.2-50.5,55.5c-55.5,61.6-133.3,148.3-187.7,209.4 c-0.6,1.1-1.1,1.7-2.2,2.8C-12,643,211.2,866.3,211.2,866.3h-0.6c66.1,76.6,159.9,123.8,260.5,131.1c8.9,1.1,18.3,1.7,28.3,1.7h0.6 c9.4,0,18.9-0.6,28.3-1.7c101.1-7.2,194.4-54.4,260.5-131.1h-0.6C788.8,866.3,1012.1,643,806.6,369.2z M328.4,561.9l-5,7.8l-0.6,0.6 c-37.8,45.5-60,94.4-67.2,142.7c-1.1,6.1-6.7,10-12.2,8.9c-3.9-0.6-6.7-3.3-8.3-6.7c-10-23.3-16.7-47.8-20-72.8 C202.3,554.1,229,477,285.6,410.9c22.8-26.1,45.5-52.2,68.3-78.3c3.9-4.4,10.6-5,15-1.1l0,0c0.6,0.6,0.6,0.6,1.1,1.1 c18.3,21.1,42.2,48.3,68.9,79.4c3.3,3.9,3.3,10,0,14.4c-36.7,43.9-75.5,90.5-110.5,135V561.9z M643.8,790.7L643.8,790.7 c-21.1,55.5-62.8,88.9-121.6,98.3c-83.9,12.8-162.2-44.4-174.9-128.3c0-1.1,0-1.7-0.6-2.8c-6.7-47.2,7.8-88.9,38.3-124.4 c35.5-41.7,113.9-138.3,115-140l0,0c1.7,1.7,85,105.5,116.1,142.2C655.5,681.9,665,734.6,643.8,790.7z M767.7,703.5L767.7,703.5 c-0.6,1.7-1.7,3.9-2.2,5.6c-2.2,5.6-8.3,8.3-13.9,6.1c-3.3-1.7-6.1-4.4-6.7-8.3c-7.8-46.7-30-93.3-66.1-137.2l-0.6-0.6l-3.3-5 l-2.2-2.8c-28.9-36.7-181.6-215.5-248.3-293.8c-3.3-3.9-3.3-10,0-14.4c22.2-24.4,44.4-48.9,66.1-73.9c3.9-4.4,10.6-4.4,15-0.6 l0.6,0.6c10,10.6,19.4,21.1,28.9,32.2c60.5,67.8,121.6,134.4,180.5,202.7C789.9,500.3,807.1,599.1,767.7,703.5z"/></svg>
