<svg width="141" height="162" xmlns="http://www.w3.org/2000/svg"><defs><filter x="-10.1%" y="-8.1%" width="120.2%" height="116.2%" filterUnits="objectBoundingBox" id="a"><feGaussianBlur stdDeviation=".826" in="SourceGraphic"/></filter><filter x="-55.3%" y="-28.3%" width="210.6%" height="156.6%" filterUnits="objectBoundingBox" id="b"><feGaussianBlur stdDeviation=".826" in="SourceGraphic"/></filter><filter x="-55.3%" y="-28.3%" width="210.6%" height="156.6%" filterUnits="objectBoundingBox" id="c"><feGaussianBlur stdDeviation=".826" in="SourceGraphic"/></filter><filter x="-55.3%" y="-28.3%" width="210.6%" height="156.6%" filterUnits="objectBoundingBox" id="d"><feGaussianBlur stdDeviation=".826" in="SourceGraphic"/></filter><filter x="-78%" y="-92.6%" width="255.9%" height="285.2%" filterUnits="objectBoundingBox" id="e"><feGaussianBlur stdDeviation=".826" in="SourceGraphic"/></filter><filter x="-78%" y="-92.6%" width="255.9%" height="285.2%" filterUnits="objectBoundingBox" id="f"><feGaussianBlur stdDeviation=".826" in="SourceGraphic"/></filter><filter x="-26.9%" y="-13.6%" width="153.8%" height="127.1%" filterUnits="objectBoundingBox" id="g"><feGaussianBlur stdDeviation=".826" in="SourceGraphic"/></filter><filter x="-8.6%" y="-7.7%" width="117.2%" height="115.4%" filterUnits="objectBoundingBox" id="h"><feGaussianBlur stdDeviation=".826" in="SourceGraphic"/></filter></defs><g fill="none" fill-rule="evenodd"><g stroke="#000"><g stroke-linecap="round"><path d="M50.404.653c6.367 10.91 16.254 20.261 29.503 28.053 18.96 11.687 36.696 23.54 34.472 51.723" stroke-width="8" stroke-linejoin="round" filter="url(#a)" transform="translate(10 17.902)"/><path d="M112.67 92.68c-2.434 9.629-6.34 17.253-11.717 22.872" stroke-width="8" filter="url(#b)" transform="translate(10 17.902)"/><path d="M86.947 117.508c-2.433 9.63-6.339 17.254-11.716 22.873" stroke-width="8" filter="url(#c)" transform="rotate(38 60.093 152.417)"/><path d="M50.965 122.335c-2.433 9.629-6.339 17.253-11.716 22.872" stroke-width="8" filter="url(#d)" transform="rotate(74 38.228 149.357)"/><path d="M23.01 125.974c-4.056-2.45-6.825-4.781-8.31-6.995" stroke-width="8" filter="url(#e)" transform="translate(10 17.902)"/><path d="M10.216 109.887c-4.056-2.45-6.825-4.782-8.309-6.996" stroke-width="8" filter="url(#f)" transform="rotate(24 -31.05 138.863)"/><path d="M1.24 83.89C-.82 76.204-.82 61.348 5.185 51.804c9.007-14.316 14.29-17.202 22.596-23.035" stroke-width="10" stroke-dasharray="6,19" filter="url(#g)" transform="translate(10 17.902)"/></g><path d="M38.8 93.936v-7.112c0-1.172.213-2.01.64-2.517.451-.506 1.17-.759 2.154-.759 1.09 0 1.955.746 2.593 2.237.426.906.812 1.585 1.157 2.038 1.118 1.438 2.767 2.597 4.948 3.476 2.181.852 4.589 1.278 7.222 1.278 2.82 0 5.081-.572 6.783-1.718 1.703-1.145 2.554-2.65 2.554-4.514 0-1.891-.691-3.236-2.075-4.036-1.356-.799-3.697-1.198-7.022-1.198h-2.195c-5.426 0-9.563-.946-12.41-2.837-2.845-1.89-4.269-4.634-4.269-8.23 0-3.516 1.384-6.246 4.15-8.19 2.793-1.945 6.704-2.917 11.731-2.917 2.048 0 4.137.293 6.265.879 2.128.56 3.245.839 3.351.839.293 0 .851-.253 1.676-.76.825-.532 1.636-.798 2.434-.798.905 0 1.57.333 1.995.999.452.666.678 1.664.678 2.996v4.675c0 1.411-.212 2.437-.638 3.076-.426.613-1.104.919-2.035.919-.798 0-1.782-.68-2.953-2.038-.824-.932-1.503-1.638-2.035-2.117-1.41-1.305-2.912-2.238-4.508-2.797-1.596-.586-3.472-.879-5.626-.879-2.5 0-4.523.56-6.065 1.678-1.517 1.092-2.275 2.49-2.275 4.195 0 1.678.785 2.877 2.354 3.596 1.57.72 4.948 1.132 10.135 1.239 5.533.133 9.577 1.105 12.13 2.916 2.554 1.785 3.83 4.555 3.83 8.31 0 3.596-1.41 6.473-4.229 8.63-2.82 2.158-6.623 3.236-11.412 3.236-1.516 0-3.205-.146-5.067-.44-1.862-.266-4.203-.732-7.023-1.398-.93.613-1.729 1.066-2.394 1.359-.665.32-1.223.48-1.675.48-.931 0-1.65-.32-2.155-.96-.479-.665-.718-1.611-.718-2.836z" fill="#000" fill-rule="nonzero" filter="url(#h)" transform="translate(10 17.757)"/></g><g stroke="#2DA8DF" stroke-linecap="round" stroke-width="10"><path d="M70.477 7.989c4.691 11.789 12.78 21.893 24.268 30.311 17.23 12.629 34.356 25.436 34.356 55.888" stroke-linejoin="round"/><path d="M127.226 109.687c-2.683 8.75-6.272 14.575-11.768 20.291M103.668 140.914c-5.287 4.085-12.54 7.048-20.39 8.169M67.617 151.282c-7.413 1.111-13.3 0-18.82-2.66M35.801 140.58c-4.144-2.492-6.974-4.864-8.49-7.116M17.941 122.034c-1.955-1.897-3.274-5.786-3.743-8.46"/><path d="M12.53 96.635c0-5.258.082-17.478 6.824-28.143C29.466 52.494 35.397 49.268 44.722 42.75" stroke-dasharray="7,16"/></g><path d="M52.8 107.411V100.3c0-1.171.212-2.01.638-2.517.452-.506 1.17-.759 2.154-.759 1.091 0 1.956.746 2.594 2.238.426.905.811 1.584 1.157 2.037 1.117 1.439 2.767 2.597 4.948 3.476 2.181.853 4.588 1.279 7.222 1.279 2.82 0 5.08-.573 6.783-1.718 1.703-1.146 2.554-2.65 2.554-4.515 0-1.891-.692-3.236-2.075-4.035-1.357-.8-3.698-1.199-7.023-1.199h-2.194c-5.427 0-9.563-.945-12.41-2.836-2.846-1.892-4.269-4.635-4.269-8.23 0-3.517 1.383-6.247 4.15-8.191 2.793-1.944 6.703-2.917 11.73-2.917 2.049 0 4.137.293 6.265.88 2.128.559 3.246.838 3.352.838.293 0 .851-.253 1.676-.759.824-.533 1.636-.799 2.434-.799.904 0 1.57.333 1.995.999.452.666.678 1.665.678 2.996v4.675c0 1.412-.213 2.437-.638 3.076-.426.613-1.104.92-2.035.92-.798 0-1.782-.68-2.953-2.038-.825-.933-1.503-1.638-2.035-2.118-1.41-1.305-2.913-2.237-4.509-2.797-1.596-.586-3.471-.879-5.626-.879-2.5 0-4.522.56-6.065 1.678-1.516 1.093-2.274 2.49-2.274 4.196 0 1.678.785 2.876 2.354 3.595 1.57.72 4.948 1.132 10.135 1.239 5.533.133 9.576 1.105 12.13 2.916 2.554 1.785 3.83 4.555 3.83 8.31 0 3.596-1.41 6.473-4.23 8.63-2.819 2.158-6.623 3.237-11.41 3.237-1.517 0-3.206-.147-5.068-.44-1.862-.266-4.203-.732-7.023-1.398-.93.612-1.729 1.065-2.394 1.358-.665.32-1.224.48-1.676.48-.93 0-1.649-.32-2.154-.96-.48-.665-.719-1.61-.719-2.836z" fill="#D8D8D8" fill-rule="nonzero"/><path d="M87.327 97.252c-2.134.72-4.301 1.39-6.499 2.004-.127-1.597-.812-2.754-2.053-3.471-1.357-.8-3.698-1.199-7.023-1.199h-2.194c-5.427 0-9.563-.945-12.41-2.836-2.846-1.892-4.269-4.635-4.269-8.23 0-3.517 1.383-6.247 4.15-8.191 2.793-1.944 6.703-2.917 11.73-2.917 2.049 0 4.137.293 6.265.88 2.128.559 3.246.838 3.352.838.293 0 .851-.253 1.676-.759.824-.533 1.636-.799 2.434-.799.904 0 1.57.333 1.995.999.452.666.678 1.665.678 2.996v4.675c0 1.412-.213 2.437-.638 3.076-.426.613-1.104.92-2.035.92-.798 0-1.782-.68-2.953-2.038-.825-.933-1.503-1.638-2.035-2.118-1.41-1.305-2.913-2.237-4.509-2.797-1.596-.586-3.471-.879-5.626-.879-2.5 0-4.522.56-6.065 1.678-1.516 1.093-2.274 2.49-2.274 4.196 0 1.678.785 2.876 2.354 3.595 1.57.72 4.948 1.132 10.135 1.239 5.533.133 9.576 1.105 12.13 2.916 2.055 1.436 3.283 3.51 3.684 6.222zm-26.024 5.912c-2.802.348-5.638.611-8.504.788V100.3c0-1.171.213-2.01.639-2.517.452-.506 1.17-.759 2.154-.759 1.091 0 1.956.746 2.594 2.238.426.905.811 1.584 1.157 2.037a9.48 9.48 0 0 0 1.96 1.866z" fill="#FFF"/></g></svg>