<svg version="1.1" id="logo-svg" xmlns="http://www.w3.org/2000/svg" xmlns:xlink="http://www.w3.org/1999/xlink" x="0px" y="0px" viewBox="0 0 333.15 54.88" style="enable-background:new 0 0 333.15 54.88;" xml:space="preserve">
<style type="text/css">
	.st0{fill:#313490;}
	.st1{fill:#9B9BC8;}
	.st2{fill:#CAC9DF;}
	.st3{fill:#E1E1F1;}
	.st4{fill:#D9993B;}
</style>
  <g>
	<g>
		<path class="st0" d="M6.75,10.13L4.5,0H0v14.39l11.91,11.59l2.03-11.17L6.75,10.13z M6.75,10.13"></path>
    <path class="st1" d="M37.39,46.57l-8.12-3.03v11.34L34,53.82L37.39,46.57 M37.39,46.57"></path>
    <path class="st2" d="M21.15,46.57l3.39,7.25l4.73,1.06V43.54L21.15,46.57 M21.15,46.57"></path>
    <path class="st3" d="M13.95,14.81l-2.03,11.17l9.23,20.58l8.12-3.03V10.43L13.95,14.81z"></path>
    <path class="st4" d="M44.6,14.81l2.03,11.17l11.91-11.59V0l-4.5,0l-2.25,10.13L44.6,14.81z M51.79,10.13"></path>
    <path class="st2" d="M29.27,10.43v33.11l8.12,3.03l9.23-20.58L44.6,14.81L29.27,10.43z"></path>
	</g>
    <g>
		<path class="st0" d="M124.02,20.53c-3.82,0-7.43,1.51-10.17,4.26c-2.89,2.9-4.48,6.79-4.47,10.97
			c0.01,9.12,6.21,15.25,15.43,15.25c4.14,0,8.8-1.3,12.79-3.57l0.21-0.12l-2.48-4.88l-0.23,0.13c-3.09,1.79-7.04,2.92-10.29,2.94
			c-4.5,0-7.8-2.15-9.06-5.9l-0.25-0.73h22.83l0.04-0.2c0.2-0.95,0.31-1.94,0.31-2.93C138.66,27.36,132.09,20.53,124.02,20.53z
			 M115.37,33.5l0.21-0.71c1.16-3.98,4.63-6.76,8.44-6.76c3.81,0,7.28,2.78,8.44,6.76l0.21,0.71H115.37z"></path>
      <path class="st0" d="M163.53,20.53c-3.31,0-6.46,1.23-8.87,3.45l-0.93,0.86v-3.73h-5.78v29.3h5.78V34.88
			c0-4.88,3.84-8.85,8.57-8.85s8.57,3.97,8.57,8.85v15.53h5.78V33.64C176.64,26.41,170.76,20.53,163.53,20.53z"></path>
      <path class="st0" d="M205.02,44.37c-3.26,1.27-6.22,1.41-7.91,0.38c-1.15-0.71-1.71-2.02-1.71-3.99V26.62h9.18v-5.5h-9.18v-8.05
			h-5.79v8.05h-5.51v5.5h5.51v14.7c0,3.63,1.44,6.45,4.16,8.15c3.31,2.06,8.3,2.07,12.96,0.02l0.21-0.09l-1.67-5.13L205.02,44.37z"></path>
      <path class="st0" d="M227.66,20.53c-7.83,0-14.2,6.84-14.2,15.26c0,8.39,6.37,15.22,14.2,15.22c3.48,0,6.82-1.36,9.42-3.83
			l0.94-0.89v4.14h5.78V21.12h-5.78v4.14l-0.94-0.89C234.48,21.89,231.14,20.53,227.66,20.53z M238.14,35.78
			c0,5.36-4.24,9.73-9.45,9.73c-5.21,0-9.45-4.37-9.45-9.73c0-5.38,4.24-9.75,9.45-9.75C233.9,26.03,238.14,30.4,238.14,35.78z"></path>
      <path class="st0" d="M261.7,24.04l-0.92,0.78v-3.7H255v29.3h5.79V36.85c0-3.98,1.72-6.38,3.17-7.69c2.01-1.81,4.72-2.7,7.43-2.44
			l0.28,0.03l0.01-6.22h-0.25C267.8,20.53,264.35,21.78,261.7,24.04z"></path>
      <path class="st4" d="M287,24.04l-0.92,0.78v-3.7h-5.78v29.3h5.78V36.85c0-3.98,1.72-6.38,3.17-7.69c2-1.82,4.72-2.7,7.43-2.44
			l0.28,0.03l0.01-6.22h-0.25C293.11,20.53,289.66,21.78,287,24.04z"></path>
      <path class="st0" d="M333.15,35.75c0-8.39-6.83-15.22-15.23-15.22c-8.4,0-15.23,6.83-15.23,15.22c0,8.41,6.83,15.26,15.23,15.26
			C326.32,51.01,333.15,44.16,333.15,35.75z M317.92,45.51c-5.21,0-9.44-4.37-9.44-9.75c0-5.36,4.24-9.73,9.44-9.73
			c5.21,0,9.45,4.37,9.45,9.73C327.37,41.13,323.13,45.51,317.92,45.51z"></path>
      <path class="st0" d="M97.49,22.94l0.15,0.2l4.62-3.51l-0.16-0.2c-3.99-5.17-10.03-8.14-16.58-8.14
			c-11.52,0-20.89,9.32-20.89,20.77S74,52.83,85.52,52.83c6.55,0,12.59-2.97,16.58-8.14l0.16-0.2l-4.62-3.51l-0.15,0.2
			c-2.89,3.78-7.25,5.95-11.97,5.95c-8.26,0-14.99-6.76-14.99-15.07s6.72-15.07,14.99-15.07C90.24,16.99,94.6,19.16,97.49,22.94z"></path>
	</g>
</g>
</svg>
