<svg xmlns="http://www.w3.org/2000/svg" viewBox="0 0 1629.84 407.65" width="300">
  <defs>
    <style>.cls-3{fill:#31758e}</style>
  </defs>
  <g id="Layer_1" data-name="Layer 1">
    <rect x="131.65" y="157.28" width="144" height="144" rx="4.5" transform="rotate(45 203.651 229.275)"
          fill="#8eb3c1"/>
    <rect x="131.65" y="106.37" width="144" height="144" rx="4.5" transform="rotate(45 203.65 178.364)" fill="#d4e5eb"/>
    <path class="cls-3"
          d="M276.83 105.18l-70 70a4.52 4.52 0 01-6.37 0l-19.09-19.1a4.51 4.51 0 00-6.36 0l-19.09 19.1a4.49 4.49 0 000 6.36l22.27 22.27 22.27 22.28a4.5 4.5 0 006.37 0l95.46-95.46a4.5 4.5 0 000-6.37l-19.09-19.08a4.52 4.52 0 00-6.37 0z"/>
  </g>
  <g id="Layer_2" data-name="Layer 2">
    <path class="cls-3" d="M551.78 76.55v39.31h-60.19v172.39h-46.27V115.86h-59.58V76.55z"/>
    <path class="cls-3"
          d="M669.73 288.73h-41.09v-19.3c-11.86 16.55-26.75 22.34-43.85 22.34-39.72 0-50.47-31.72-50.47-67.57v-76.94h41.09v76.11c0 19.58 7.17 34.48 26.2 34.48s27-15.17 27-34.75v-75.84h41.09zM850.6 278.81c0 55.7-36.41 77.49-76.67 77.49-31.44 0-52.68-8-67-19.58l16.27-32c8.28 7.17 26.76 16 42.48 16 21.23 0 43.85-6.34 43.85-37.23v-15.44c-10.21 14.62-23.72 23.72-44.41 23.72-43 0-68.94-33.1-68.94-74.46 0-39.72 24-73.09 68.12-73.09a56.67 56.67 0 0145.23 22.34v-19.3h41.07zm-77-20.41c20.14 0 37-13 37-38.61 0-26.2-15.72-42.2-38.06-42.2-22.61 0-35.3 18.2-35.3 40 .01 22.6 13.76 40.81 36.41 40.81zM965.67 291.77c-20.68 0-34.19-9.1-44.4-23.72v20.68h-41.09V89.34h41.09v77.22a56.66 56.66 0 0145.23-22.34c44.13 0 68.12 33.37 68.12 73.09 0 41.36-25.92 74.46-68.95 74.46zm-7.44-114.18c-22.34 0-38.06 16-38.06 42.2 0 25.64 16.82 38.61 37 38.61 22.62 0 36.41-18.21 36.41-40.82-.05-21.79-12.74-39.99-35.35-39.99zM1136.59 144.22c41.37 0 77.77 29.79 77.77 73.64 0 44.12-36.4 73.91-77.77 73.91-41.1 0-77.78-29.51-77.78-73.91 0-44.13 36.68-73.64 77.78-73.64zm0 112.25c20.41 0 37.78-16.55 37.78-38.61a37.79 37.79 0 10-75.57 0c0 22.33 17.65 38.61 37.79 38.61zM1387 147.26v141.47h-41.09v-20.68c-10.21 14.62-23.72 23.72-44.4 23.72-43 0-69-33.1-69-74.46 0-39.72 24-73.09 68.12-73.09a56.66 56.66 0 0145.23 22.34v-19.3zm-76.94 111.14c20.13 0 37-13 37-38.61 0-26.2-15.72-42.2-38.06-42.2-22.61 0-35.3 18.2-35.3 40-.05 22.6 13.74 40.81 36.36 40.81zM1477 147.26h39.16v32.26H1477v66.19c0 6.07 2.48 12.41 10.48 12.41s10.76-6.62 10.76-13.24a44.93 44.93 0 00-1.93-12.13h32.54c2.48 5.24 3.31 11.86 3.31 16.82 0 21-13.79 42.2-47.16 42.2-24.82 0-49.09-8.83-49.09-49.92v-62.33h-21.24v-32.26H1439l6.35-34.75H1477z"/>
    <circle cx="1529.96" cy="115.81" r="8.4" fill="none" stroke="#31758e" stroke-miterlimit="10"/>
    <path class="cls-3"
          d="M1529.94 112.3c1.66 0 2.47 1 2.47 2.09a2 2 0 01-1.62 2l1.73 2.9h-1.36l-1.61-2.8h-.88v2.8h-1.14v-7zm0 .94h-1.27v2.34h1.27a1.13 1.13 0 001.3-1.19c0-.7-.41-1.15-1.3-1.15z"/>
  </g>
</svg>
